# xmcd
#
# Track frame offsets:
#	150
#	13520
#	33130
#	48452
#	63120
#	75857
#	92035
#	108474
#	124270
#	140319
#	154527
#	166313
#	184801
#	201510
#	215328
#	227581
#	241981
#	258262
#	273382
#	288192
#	302941
#
# Disc length: 4178 seconds
#
# Revision: 0
# Processed by: cddbd v1.5.2PL0 Copyright (c) Steve Scherf et al.
# Submitted via: EasyCDDAExtractor 16.0.6.1
#
DISCID=16105015
DTITLE=Various Artist - Nrj Summer Hits Only 2018 [CD1)
DYEAR=2018
DGENRE=Pop
TTITLE0=Naestro Feat Maitre Gims Vitaa Dadju and Slimane - Bella Ciao
TTITLE1=Ed Sheeran - Perfect
TTITLE2=Ariana Grande - No Tears Left To Cry
TTITLE3=David Guetta - Flames
TTITLE4=Aya Nakamura - Djadja
TTITLE5=Dua Lipa - Idgaf
TTITLE6=Hoshi - Ta Mariniere
TTITLE7=Rudimental Feat Jess Glynne Macklemore and Dan Caple - These Days
TTITLE8=Dadju - Bob Marley
TTITLE9=Bruno Mars - Finesse
TTITLE10=Dennis Lloyd - Nevermind
TTITLE11=Portugal The Man - Live In The Moment
TTITLE12=Amir - Les Rues De Ma Peine
TTITLE13=Zedd - The Middle
TTITLE14=Ridsa - Desabonne
TTITLE15=Julian Perretta - On The Line
TTITLE16=Kataleya - J'en Peux Plus
TTITLE17=Jahyanai King Feat Bamby - Who Mad Again
TTITLE18=L'algerino and Kore - Va Bene
TTITLE19=Charlie Puth - How Long
TTITLE20=Ofenbach Feat Wax And Herbal T - Party (Ofenbach Vs Lack Of Afro)
EXTD=
EXTT0=
EXTT1=
EXTT2=
EXTT3=
EXTT4=
EXTT5=
EXTT6=
EXTT7=
EXTT8=
EXTT9=
EXTT10=
EXTT11=
EXTT12=
EXTT13=
EXTT14=
EXTT15=
EXTT16=
EXTT17=
EXTT18=
EXTT19=
EXTT20=
PLAYORDER=
